<?xml version="1.0" encoding="UTF-8" standalone="no"?>
<!DOCTYPE svg PUBLIC "-//W3C//DTD SVG 1.1//EN" "http://www.w3.org/Graphics/SVG/1.1/DTD/svg11.dtd">
<svg width="100%" height="100%" viewBox="0 0 250 254" version="1.1" xmlns="http://www.w3.org/2000/svg" xmlns:xlink="http://www.w3.org/1999/xlink" xml:space="preserve" xmlns:serif="http://www.serif.com/" style="fill-rule:evenodd;clip-rule:evenodd;stroke-linejoin:round;stroke-miterlimit:2;">
    <g transform="matrix(1,0,0,1,-319.5,-207.79)">
        <g>
            <g transform="matrix(1,0,0,1,286.816,210.849)">
                <g id="l21">
                    <g id="switch5">
                        <g id="g7">
                            <g id="g9">
                                <path id="path11-4735" d="M278.084,132.257C275.879,132.103 273.637,133.334 273.409,136.104C272.725,141.529 281.314,143.068 282.074,137.027C282.378,134.065 280.25,132.411 278.084,132.257Z" style="fill:rgb(83,56,161);fill-rule:nonzero;"/>
                                <path id="path13-4736" d="M270.521,152.571C269.076,157.842 277.362,160.574 278.996,154.726C280.326,148.839 271.737,147.223 270.521,152.571Z" style="fill:rgb(83,56,161);fill-rule:nonzero;"/>
                                <path id="path15-4737" d="M265.238,168.615C264.744,169.923 264.782,171.039 265.238,172.039C265.694,173.001 266.53,173.809 267.518,174.27C268.506,174.732 269.647,174.847 270.711,174.54C271.737,174.193 272.763,173.424 273.295,172C275.499,166.345 267.214,163.498 265.238,168.615Z" style="fill:rgb(83,56,161);fill-rule:nonzero;"/>
                                <path id="path17-4738" d="M257.827,183.543C257.181,184.774 257.029,185.89 257.371,186.928C257.675,187.967 258.397,188.852 259.347,189.468C260.259,190.083 261.361,190.353 262.464,190.16C263.528,189.968 264.63,189.352 265.352,188.044C268.316,182.812 260.525,178.772 257.827,183.543Z" style="fill:rgb(83,56,161);fill-rule:nonzero;"/>
                                <path id="path19-4739" d="M248.288,197.432C247.452,198.548 247.186,199.663 247.338,200.741C247.49,201.818 248.098,202.818 248.934,203.511C249.77,204.242 250.834,204.703 251.898,204.665C253,204.626 254.179,204.165 255.053,202.972C258.777,198.201 251.67,193.123 248.288,197.432Z" style="fill:rgb(83,56,161);fill-rule:nonzero;"/>
                                <path id="path21-4740" d="M237.038,209.667C236.05,210.628 235.632,211.706 235.67,212.821C235.67,213.899 236.126,214.976 236.848,215.822C237.57,216.669 238.559,217.246 239.661,217.4C240.763,217.554 241.979,217.207 243.005,216.169C247.338,211.937 240.991,205.896 237.038,209.667Z" style="fill:rgb(83,56,161);fill-rule:nonzero;"/>
                                <path id="path23-4741" d="M224.041,220.285C223.471,220.67 223.091,221.17 222.787,221.632C222.482,222.132 222.292,222.632 222.254,223.171C222.102,224.248 222.406,225.364 223.015,226.287C223.623,227.211 224.497,227.942 225.561,228.25C226.093,228.403 226.663,228.442 227.271,228.326C227.879,228.211 228.449,227.942 229.057,227.519C233.922,224.017 228.487,217.131 224.041,220.285Z" style="fill:rgb(83,56,161);fill-rule:nonzero;"/>
                                <path id="path25-4742" d="M209.865,228.827C209.257,229.134 208.763,229.558 208.421,230.019C208.079,230.481 207.813,230.943 207.661,231.481C207.395,232.52 207.509,233.674 207.965,234.675C208.421,235.675 209.181,236.521 210.207,236.983C210.701,237.214 211.271,237.329 211.879,237.291C212.487,237.252 213.095,237.099 213.779,236.752C216.44,235.367 216.668,232.751 215.604,230.827C214.577,228.865 212.297,227.595 209.865,228.827Z" style="fill:rgb(83,56,161);fill-rule:nonzero;"/>
                                <path id="path27-4743" d="M197.817,235.598C196.867,235.059 195.727,234.867 194.435,235.29C191.851,236.214 191.128,238.638 191.737,240.792C192.345,242.908 194.397,244.678 197.209,243.678C198.615,243.216 199.49,242.331 199.908,241.292C200.326,240.292 200.25,239.099 199.87,238.06C199.49,237.06 198.767,236.175 197.817,235.598Z" style="fill:rgb(83,56,161);fill-rule:nonzero;"/>
                                <path id="path29-4744" d="M181.779,240.215C180.943,239.561 179.803,239.176 178.473,239.445C177.105,239.676 176.193,240.407 175.622,241.369C175.052,242.293 174.862,243.408 175.014,244.524C175.166,245.601 175.66,246.679 176.535,247.371C177.371,248.064 178.549,248.41 180.031,248.141C181.475,247.871 182.463,247.14 183.033,246.178C183.566,245.217 183.68,244.024 183.451,242.947C183.185,241.869 182.615,240.869 181.779,240.215Z" style="fill:rgb(83,56,161);fill-rule:nonzero;"/>
                                <path id="path31-4745" d="M163.651,241.6C163.119,241.369 162.511,241.254 161.827,241.254C156.43,241.408 156.164,250.218 162.131,250.064C162.853,250.064 163.499,249.872 164.031,249.641C164.563,249.372 165.019,248.987 165.361,248.525C166.045,247.64 166.311,246.525 166.235,245.409C166.159,244.293 165.741,243.216 164.981,242.446C164.639,242.1 164.183,241.792 163.651,241.6Z" style="fill:rgb(83,56,161);fill-rule:nonzero;"/>
                                <path id="path33-4746" d="M145.333,240.677C139.974,239.984 138.492,248.718 144.42,249.449C147.385,249.718 148.981,247.602 149.133,245.409C149.285,243.216 148.031,240.946 145.333,240.677Z" style="fill:rgb(83,56,161);fill-rule:nonzero;"/>
                                <path id="path35-4747" d="M128.876,237.714C123.67,236.252 120.971,244.639 126.71,246.255C132.563,247.64 134.159,238.945 128.876,237.714Z" style="fill:rgb(83,56,161);fill-rule:nonzero;"/>
                                <path id="path37-4748" d="M113.218,232.443C112.572,232.212 111.964,232.097 111.394,232.097C110.824,232.097 110.292,232.251 109.798,232.482C108.848,232.943 108.05,233.79 107.594,234.79C107.138,235.79 107.024,236.945 107.328,238.022C107.48,238.561 107.784,239.061 108.202,239.522C108.62,239.984 109.152,240.369 109.836,240.638C115.461,242.831 118.273,234.444 113.218,232.443Z" style="fill:rgb(83,56,161);fill-rule:nonzero;"/>
                                <path id="path39-4749" d="M98.283,224.864C97.066,224.21 95.964,224.056 94.938,224.402C93.912,224.71 93.038,225.441 92.43,226.403C91.822,227.326 91.556,228.442 91.746,229.558C91.936,230.635 92.544,231.751 93.836,232.482C99.005,235.483 102.995,227.595 98.283,224.864Z" style="fill:rgb(83,56,161);fill-rule:nonzero;"/>
                                <path id="path41-4750" d="M84.715,215.322C83.613,214.476 82.511,214.206 81.446,214.36C80.382,214.514 79.394,215.13 78.71,215.976C77.988,216.823 77.57,217.9 77.57,219.016C77.608,220.131 78.064,221.324 79.242,222.209C83.955,225.941 89.009,218.708 84.715,215.322Z" style="fill:rgb(83,56,161);fill-rule:nonzero;"/>
                                <path id="path43-4751" d="M69.399,202.395C68.335,202.395 67.271,202.857 66.434,203.588C65.598,204.319 65.028,205.319 64.876,206.396C64.724,207.512 65.066,208.743 66.092,209.82C70.197,214.206 76.202,207.781 72.477,203.818C71.527,202.818 70.463,202.395 69.399,202.395Z" style="fill:rgb(83,56,161);fill-rule:nonzero;"/>
                                <path id="path45-4752" d="M60.772,189.506C60.278,189.198 59.784,189.006 59.252,188.967C58.187,188.814 57.085,189.121 56.173,189.737C55.261,190.353 54.539,191.237 54.235,192.315C54.083,192.853 54.045,193.43 54.159,194.046C54.273,194.662 54.539,195.239 54.957,195.854C56.667,198.317 59.252,198.201 61.038,196.855C62.748,195.547 63.736,193.046 62.14,190.814C61.722,190.237 61.266,189.814 60.772,189.506Z" style="fill:rgb(83,56,161);fill-rule:nonzero;"/>
                                <path id="path47-4753" d="M52.411,174.809C51.993,174.424 51.499,174.193 50.967,174.04C49.94,173.732 48.8,173.886 47.812,174.347C46.824,174.809 45.988,175.578 45.532,176.617C45.304,177.117 45.19,177.695 45.19,178.31C45.228,178.926 45.38,179.541 45.722,180.234C47.09,182.889 49.636,183.196 51.575,182.081C53.475,181.042 54.767,178.733 53.513,176.271C53.285,175.655 52.867,175.155 52.411,174.809Z" style="fill:rgb(83,56,161);fill-rule:nonzero;"/>
                                <path id="path49-4754" d="M46.976,164.267C47.508,163.305 47.698,162.151 47.28,160.843C46.368,158.227 43.974,157.496 41.845,158.111C39.755,158.727 38.007,160.804 38.995,163.652C39.451,165.075 40.325,165.96 41.351,166.383C42.377,166.806 43.518,166.729 44.544,166.345C45.57,165.921 46.444,165.229 46.976,164.267Z" style="fill:rgb(83,56,161);fill-rule:nonzero;"/>
                                <path id="path51-4755" d="M39.641,149.493C40.705,149.262 41.693,148.685 42.339,147.839C42.985,146.992 43.366,145.838 43.138,144.491C42.909,143.106 42.187,142.183 41.237,141.606C40.325,141.029 39.223,140.836 38.121,140.99C37.057,141.144 35.993,141.644 35.309,142.529C34.624,143.376 34.282,144.568 34.548,146.03C34.814,147.492 35.537,148.493 36.487,149.07C37.437,149.57 38.577,149.724 39.641,149.493Z" style="fill:rgb(83,56,161);fill-rule:nonzero;"/>
                                <path id="path53-4756" d="M40.173,131.025C40.553,130.641 40.857,130.179 41.047,129.64C41.275,129.102 41.389,128.486 41.389,127.794C41.237,122.33 32.534,122.061 32.686,128.101C32.724,128.832 32.838,129.487 33.104,130.025C33.37,130.564 33.75,131.025 34.206,131.372C35.08,132.064 36.183,132.334 37.285,132.257C38.349,132.218 39.375,131.795 40.173,131.025Z" style="fill:rgb(83,56,161);fill-rule:nonzero;"/>
                                <path id="path55-4757" d="M37.247,114.751C39.451,114.905 41.693,113.674 41.921,110.904C42.605,105.479 34.016,103.94 33.256,109.98C32.952,112.981 35.08,114.636 37.247,114.751Z" style="fill:rgb(83,56,161);fill-rule:nonzero;"/>
                                <path id="path57-4758" d="M44.848,94.475C46.292,89.204 38.007,86.473 36.373,92.321C35.042,98.207 43.632,99.823 44.848,94.475Z" style="fill:rgb(83,56,161);fill-rule:nonzero;"/>
                                <path id="path59-4759" d="M50.092,78.431C50.586,77.123 50.548,76.008 50.092,75.007C49.636,74.045 48.8,73.237 47.812,72.776C46.824,72.314 45.684,72.199 44.62,72.506C43.594,72.853 42.567,73.622 42.035,75.046C39.869,80.663 48.116,83.51 50.092,78.431Z" style="fill:rgb(83,56,161);fill-rule:nonzero;"/>
                                <path id="path61-4760" d="M57.503,63.465C58.149,62.234 58.301,61.118 57.959,60.079C57.655,59.04 56.933,58.156 55.983,57.54C55.071,56.924 53.969,56.655 52.867,56.847C51.803,57.04 50.7,57.655 49.978,58.964C47.014,64.234 54.805,68.236 57.503,63.465Z" style="fill:rgb(83,56,161);fill-rule:nonzero;"/>
                                <path id="path63-4761" d="M67.043,49.576C67.879,48.46 68.145,47.344 67.993,46.267C67.841,45.19 67.233,44.189 66.396,43.497C65.56,42.766 64.496,42.304 63.432,42.343C62.33,42.381 61.152,42.843 60.278,44.036C56.553,48.806 63.698,53.923 67.043,49.576Z" style="fill:rgb(83,56,161);fill-rule:nonzero;"/>
                                <path id="path65-4762" d="M79.66,34.225C79.66,33.147 79.204,32.07 78.482,31.224C77.76,30.377 76.772,29.8 75.67,29.646C74.568,29.492 73.351,29.839 72.325,30.877C67.993,35.071 74.34,41.112 78.292,37.341C79.28,36.379 79.698,35.302 79.66,34.225Z" style="fill:rgb(83,56,161);fill-rule:nonzero;"/>
                                <path id="path67-4763" d="M92.544,25.376C92.848,24.875 93.038,24.375 93.076,23.837C93.228,22.759 92.924,21.644 92.316,20.72C91.708,19.797 90.834,19.066 89.769,18.758C89.237,18.604 88.667,18.566 88.059,18.681C87.451,18.797 86.881,19.066 86.273,19.489C81.408,22.99 86.843,29.916 91.252,26.722C91.86,26.338 92.24,25.837 92.544,25.376Z" style="fill:rgb(83,56,161);fill-rule:nonzero;"/>
                                <path id="path69-4764" d="M107.366,12.371C106.91,11.371 106.15,10.525 105.123,10.063C104.629,9.832 104.059,9.717 103.451,9.755C102.843,9.794 102.235,9.948 101.551,10.294C98.891,11.679 98.663,14.295 99.727,16.219C100.791,18.143 103.033,19.451 105.465,18.181C106.074,17.873 106.568,17.45 106.91,16.988C107.252,16.527 107.518,16.065 107.67,15.526C107.936,14.526 107.822,13.372 107.366,12.371Z" style="fill:rgb(83,56,161);fill-rule:nonzero;"/>
                                <path id="path71-4765" d="M123.594,6.216C122.986,4.099 120.933,2.33 118.121,3.33C116.715,3.792 115.841,4.677 115.423,5.715C115.005,6.716 115.081,7.908 115.461,8.947C115.841,9.986 116.563,10.871 117.475,11.41C118.425,11.948 119.565,12.141 120.857,11.717C123.48,10.794 124.202,8.37 123.594,6.216Z" style="fill:rgb(83,56,161);fill-rule:nonzero;"/>
                                <path id="path73-4766" d="M138.834,-0.364C137.998,-1.056 136.82,-1.402 135.375,-1.133C133.931,-0.864 132.943,-0.133 132.373,0.829C131.841,1.791 131.727,2.984 131.955,4.061C132.183,5.138 132.753,6.139 133.589,6.793C134.425,7.447 135.565,7.831 136.896,7.562C138.264,7.331 139.176,6.6 139.746,5.638C140.316,4.715 140.506,3.599 140.354,2.484C140.164,1.445 139.67,0.367 138.834,-0.364Z" style="fill:rgb(83,56,161);fill-rule:nonzero;"/>
                                <path id="path75-4767" d="M153.2,-3.057C152.478,-3.057 151.831,-2.864 151.299,-2.633C150.767,-2.364 150.311,-1.979 149.969,-1.518C149.285,-0.633 149.019,0.483 149.095,1.599C149.171,2.714 149.589,3.792 150.349,4.561C150.729,4.946 151.185,5.254 151.717,5.446C152.249,5.677 152.858,5.792 153.542,5.792C158.9,5.638 159.166,-3.211 153.2,-3.057Z" style="fill:rgb(83,56,161);fill-rule:nonzero;"/>
                                <path id="path77-4768" d="M170.91,-2.441C167.946,-2.71 166.349,-0.594 166.197,1.599C166.045,3.83 167.261,6.1 169.998,6.331C175.394,7.024 176.877,-1.71 170.91,-2.441Z" style="fill:rgb(83,56,161);fill-rule:nonzero;"/>
                                <path id="path79-4769" d="M188.62,0.752C182.805,-0.594 181.171,8.062 186.454,9.293C191.661,10.794 194.359,2.368 188.62,0.752Z" style="fill:rgb(83,56,161);fill-rule:nonzero;"/>
                                <path id="path81-4770" d="M207.965,9.024C207.813,8.486 207.509,7.985 207.091,7.524C206.672,7.062 206.14,6.677 205.456,6.408C199.908,4.176 197.095,12.564 202.112,14.564C202.758,14.795 203.366,14.911 203.936,14.911C204.506,14.911 205.038,14.757 205.532,14.526C206.482,14.064 207.281,13.218 207.737,12.218C208.155,11.217 208.269,10.063 207.965,9.024Z" style="fill:rgb(83,56,161);fill-rule:nonzero;"/>
                                <path id="path83-4771" d="M222.901,20.643C223.509,19.72 223.775,18.604 223.585,17.488C223.395,16.411 222.787,15.295 221.494,14.564C216.326,11.563 212.335,19.412 217.048,22.144C218.264,22.798 219.366,22.952 220.392,22.606C221.418,22.298 222.33,21.567 222.901,20.643Z" style="fill:rgb(83,56,161);fill-rule:nonzero;"/>
                                <path id="path85-4772" d="M237.76,28.03C237.722,26.915 237.266,25.722 236.088,24.837C231.376,21.105 226.359,28.338 230.616,31.724C231.718,32.57 232.82,32.84 233.884,32.686C234.948,32.532 235.936,31.916 236.62,31.07C237.342,30.185 237.798,29.146 237.76,28.03Z" style="fill:rgb(83,56,161);fill-rule:nonzero;"/>
                                <path id="path87-4773" d="M250.454,40.611C250.606,39.496 250.264,38.264 249.238,37.187C245.095,32.801 239.129,39.226 242.853,43.189C243.803,44.189 244.867,44.613 245.931,44.574C246.996,44.574 248.06,44.113 248.896,43.382C249.694,42.689 250.302,41.727 250.454,40.611Z" style="fill:rgb(83,56,161);fill-rule:nonzero;"/>
                                <path id="path89-4774" d="M261.095,54.731C261.247,54.193 261.285,53.616 261.171,53C261.057,52.384 260.791,51.807 260.373,51.192C258.663,48.729 256.079,48.845 254.293,50.191C252.582,51.5 251.594,54 253.19,56.232C253.57,56.809 254.065,57.194 254.559,57.502C255.053,57.809 255.547,58.002 256.079,58.04C257.143,58.194 258.245,57.886 259.157,57.271C260.107,56.694 260.829,55.809 261.095,54.731Z" style="fill:rgb(83,56,161);fill-rule:nonzero;"/>
                                <path id="path91-4775" d="M262.92,72.199C263.338,72.583 263.832,72.814 264.364,72.968C265.39,73.276 266.53,73.122 267.518,72.66C268.506,72.199 269.342,71.429 269.799,70.39C270.027,69.89 270.141,69.313 270.141,68.697C270.103,68.082 269.951,67.466 269.609,66.774C268.24,64.119 265.694,63.811 263.756,64.927C261.856,65.966 260.563,68.274 261.818,70.737C262.084,71.391 262.464,71.852 262.92,72.199Z" style="fill:rgb(83,56,161);fill-rule:nonzero;"/>
                                <path id="path93-4776" d="M268.392,82.741C267.86,83.702 267.67,84.857 268.088,86.165C269,88.781 271.395,89.512 273.523,88.896C275.613,88.281 277.362,86.203 276.373,83.356C275.917,81.933 275.043,81.048 274.017,80.624C272.991,80.201 271.851,80.278 270.825,80.663C269.799,81.086 268.924,81.817 268.392,82.741Z" style="fill:rgb(83,56,161);fill-rule:nonzero;"/>
                                <path id="path95-4777" d="M275.689,97.553C274.625,97.784 273.637,98.361 272.991,99.207C272.345,100.054 271.965,101.208 272.193,102.555C272.421,103.94 273.143,104.863 274.093,105.44C275.005,106.017 276.107,106.21 277.21,106.056C278.274,105.902 279.338,105.402 280.022,104.517C280.706,103.67 281.048,102.478 280.782,101.016C280.516,99.554 279.794,98.553 278.844,97.976C277.894,97.438 276.753,97.322 275.689,97.553Z" style="fill:rgb(83,56,161);fill-rule:nonzero;"/>
                                <path id="path97-4778" d="M275.195,115.982C274.815,116.367 274.511,116.829 274.321,117.367C274.093,117.906 273.979,118.521 273.979,119.214C274.131,124.677 282.834,124.947 282.682,118.906C282.644,118.175 282.53,117.521 282.264,116.982C281.998,116.444 281.618,115.982 281.162,115.636C280.288,114.943 279.186,114.674 278.084,114.751C277.019,114.789 275.955,115.213 275.195,115.982Z" style="fill:rgb(83,56,161);fill-rule:nonzero;"/>
                            </g>
                        </g>
                    </g>
                </g>
            </g>
            <g transform="matrix(1,0,0,1,356.58,293.62)">
                <g id="_1642599461169" serif:id="1642599461169">
                    <path id="textPath" d="M1.404,80.064L76.367,80.064L79.661,54.641C79.967,52.445 76.964,51.638 76.158,54.446C73.461,64.552 64.357,77.256 44.841,77.256L38.03,77.256L38.03,10.911C38.03,6.408 41.839,2.905 46.231,2.905L48.733,2.905C49.54,2.905 50.137,2.196 50.137,1.501C50.137,0.695 49.54,-0 48.733,-0L1.404,-0C0.598,-0 -0,0.695 -0,1.501C-0,2.196 0.598,2.905 1.404,2.905L4.003,2.905C8.409,2.905 12.01,6.505 12.01,10.911L12.01,69.25C12.01,73.656 8.409,77.256 4.003,77.256L1.404,77.256C0.598,77.256 -0,77.868 -0,78.66C-0,79.466 0.598,80.064 1.404,80.064ZM14.817,8.813C14.414,6.7 13.413,4.809 12.01,3.308C12.01,3.197 11.912,3.1 11.912,3.002L12.607,3.002C13.01,4.1 13.511,5.101 13.817,5.407C14.011,5.699 14.317,6.102 14.706,5.81C15.012,5.504 15.318,5.199 15.207,4.698C15.109,4.406 14.915,4.198 14.817,4.003C14.609,3.697 14.512,3.308 14.317,3.002L15.109,3.002C15.318,3.405 15.512,3.809 15.818,4.198L17.514,3.002L19.418,3.002C18.612,3.197 17.917,3.6 17.208,4.198C16.11,5.101 15.512,6.311 15.109,7.701L14.817,8.813ZM25.117,3.6C24.52,3.809 24.214,3.503 23.825,3.405C23.324,3.197 22.824,3.1 22.323,3.002L25.02,3.002C25.02,3.197 25.117,3.405 25.117,3.6ZM12.816,77.062C12.913,76.658 12.816,76.367 12.607,76.158L13.413,75.06C13.608,74.963 13.705,74.754 13.817,74.462C13.914,74.365 13.914,74.254 13.817,74.254C14.011,73.865 14.206,73.559 14.317,73.253C14.915,73.461 15.61,73.559 16.319,73.559C17.208,73.559 18.014,73.461 18.821,73.253C21.42,72.655 22.921,70.556 24.714,68.861C25.423,68.249 24.825,67.554 24.52,66.956C24.116,66.247 23.616,66.748 23.213,66.956C21.823,67.749 20.211,68.36 18.612,68.457C17.208,68.555 15.915,68.152 15.012,67.248L15.012,62.355C15.818,61.855 16.416,62.244 17.111,62.647C17.208,62.745 17.319,62.856 17.417,62.856C18.209,63.245 18.918,62.745 18.821,61.855C18.709,60.951 18.32,60.354 17.611,59.742C16.819,59.047 15.915,58.741 15.012,58.853L15.012,57.852C16.319,58.241 17.611,58.644 18.821,59.353C19.21,58.352 19.71,57.546 20.614,56.851C20.711,56.74 20.822,56.545 20.919,56.351C21.823,54.14 21.017,50.54 19.21,49.039C18.112,48.038 16.416,47.844 15.012,48.136L15.012,47.232C15.318,47.135 15.61,47.135 15.818,47.135C16.513,47.038 16.708,46.732 16.61,46.134C16.61,45.439 16.207,44.132 15.818,43.535C15.61,43.229 15.318,42.937 15.012,42.729L15.012,40.129C15.207,39.031 15.318,37.933 15.915,37.03C16.207,36.529 15.915,36.335 15.415,36.223L15.012,36.223L15.012,35.431C15.512,35.528 16.013,35.626 16.513,35.626C17.319,35.528 17.709,34.931 17.514,34.124C17.319,32.832 17.208,31.525 17.82,30.33C18.209,29.329 17.917,28.523 17.319,27.828C16.61,27.022 15.818,26.327 15.012,25.715L15.012,23.213C16.319,24.714 18.417,25.52 20.322,24.923C20.516,24.825 20.711,24.714 20.822,25.117C19.71,26.424 18.112,25.618 16.708,25.826C16.819,26.827 17.709,27.216 18.209,27.925C18.515,28.425 18.821,28.328 19.21,27.925C19.919,27.327 20.516,26.618 21.42,26.215C22.518,25.826 23.324,25.215 23.922,24.214C24.019,24.116 24.116,24.116 24.325,24.116C24.714,24.52 24.116,24.923 24.325,25.52C26.327,25.52 28.022,26.215 29.426,27.522C29.524,27.717 29.718,27.828 29.829,28.022C30.121,28.217 30.427,28.12 30.622,27.925C30.719,27.717 30.719,27.522 30.524,27.327C30.427,27.216 30.33,27.119 30.219,26.924C28.328,24.825 27.425,22.421 28.717,19.613C28.717,19.613 28.62,19.418 28.62,19.21C26.827,19.321 25.117,19.21 23.324,19.015C23.213,19.613 23.213,20.113 23.116,20.614C22.713,21.92 21.114,23.213 19.613,23.421C18.515,23.616 17.319,22.824 16.61,21.517C16.319,20.919 16.319,20.211 16.319,19.516C16.319,18.918 16.416,18.417 16.207,17.917C16.013,17.417 15.707,17.111 15.207,17.111L15.012,17.111L15.012,16.11C15.415,16.207 15.818,16.319 16.11,16.61C17.014,17.319 17.514,18.209 17.111,19.321C16.916,20.211 17.111,21.017 17.709,21.823C18.112,22.421 18.709,22.824 19.516,22.713C20.614,22.421 21.614,21.823 22.115,20.711C22.713,19.613 22.323,18.709 21.114,18.209C18.709,17.111 16.319,15.818 15.012,13.316L15.012,11.509L15.61,12.913C17.111,15.318 19.516,16.708 22.018,17.611C24.825,18.612 27.619,18.417 30.427,18.209C31.622,18.112 32.832,18.014 33.93,17.417C34.333,17.111 34.625,17.014 34.528,16.416C34.43,16.11 34.333,15.61 34.722,15.61C34.833,15.512 34.931,15.512 35.028,15.512L35.028,17.82C34.833,17.82 34.528,17.917 34.333,18.112C33.624,18.709 32.721,18.709 31.831,18.918C29.524,19.321 28.425,21.114 29.218,23.519C29.621,24.617 30.219,25.52 31.025,26.327C32.123,27.522 32.123,27.522 33.624,26.924C33.026,26.215 32.429,25.52 31.928,24.825C31.025,23.421 30.927,21.823 32.026,20.711C32.832,19.919 33.93,19.516 35.028,19.71L35.028,28.425C34.833,28.425 34.625,28.328 34.43,28.328C32.123,27.925 30.33,28.829 28.829,30.622C27.717,31.831 27.717,33.221 28.022,34.722C28.217,36.029 29.426,36.724 29.829,37.836C29.927,37.933 30.121,37.933 30.33,37.933C31.331,38.03 31.928,38.725 32.526,39.532C32.721,39.837 32.832,40.129 33.124,40.435C33.332,40.727 33.624,40.63 33.833,40.532C34.027,40.435 34.124,40.227 34.027,39.935C33.527,38.837 33.721,37.53 33.624,36.335C33.429,36.335 33.332,36.223 33.221,36.223C30.927,36.626 29.329,34.625 30.121,32.429C30.83,30.427 33.221,29.621 35.028,30.719L35.028,31.331C34.43,30.927 33.721,30.719 32.929,30.83C31.831,30.927 31.025,31.525 30.719,32.623C30.33,33.721 30.622,34.722 31.525,35.626C32.026,36.223 33.026,36.029 33.624,35.431C34.222,34.722 34.333,34.027 33.721,33.429C33.429,33.026 33.026,32.929 32.832,33.527C32.832,33.721 33.124,34.124 32.623,34.027C32.331,34.027 32.22,33.624 32.22,33.429C32.331,32.721 33.124,32.331 33.721,32.721C34.124,33.026 34.43,33.332 34.931,33.833L35.028,33.624L35.028,35.223C34.833,35.723 34.625,36.223 34.528,36.724C34.222,37.933 34.333,38.837 35.028,39.837L35.028,41.436L34.833,41.436C34.333,41.436 33.93,41.533 33.527,41.63C32.721,41.839 32.22,41.728 32.026,40.838C31.831,40.435 31.525,40.032 31.219,39.629C30.622,38.837 30.024,38.934 29.718,39.935C29.426,40.532 29.329,41.13 29.218,41.728C29.023,42.729 28.523,43.229 27.619,43.34L26.618,43.632C24.325,44.438 24.325,44.438 24.714,46.732C24.825,47.232 25.02,47.343 25.52,47.441C27.119,47.635 27.119,47.733 26.924,49.234C26.716,50.235 26.716,51.235 27.717,52.042L29.621,50.04C29.927,49.734 30.219,49.345 30.427,49.442C31.622,49.637 31.928,48.636 32.331,47.844C32.721,47.038 33.221,46.231 33.93,45.842C34.43,45.536 34.833,45.133 35.028,44.73L35.028,46.732C34.833,46.732 34.625,46.843 34.43,46.94C34.625,46.94 34.833,46.94 35.028,47.038L35.028,47.441C34.833,47.538 34.528,47.733 34.124,48.233C34.027,48.233 33.93,48.233 33.833,48.344C32.832,48.636 32.832,48.636 32.721,50.54C32.623,51.235 33.429,50.735 33.527,51.138C33.221,51.444 32.526,50.943 32.429,51.847L35.028,51.847L35.028,53.042C34.027,53.042 33.124,53.237 32.331,53.64C30.024,54.738 28.62,56.74 28.217,59.242C27.425,63.245 28.829,66.859 32.123,69.361C33.026,70.056 34.027,70.654 35.028,71.363L35.028,73.753C34.333,73.656 33.624,73.461 32.929,73.364C31.72,73.156 31.525,73.253 31.025,74.156C30.524,75.06 30.719,75.658 31.331,76.061C31.928,76.367 33.124,76.061 33.527,75.463C33.624,75.255 33.624,75.06 33.527,74.865C33.332,74.657 33.221,74.657 32.929,74.865C32.832,74.963 32.623,75.157 32.429,74.865C32.331,74.657 32.429,74.365 32.721,74.156C33.221,73.865 33.721,74.156 34.027,74.963C34.124,75.366 33.833,75.963 34.43,76.061C34.833,76.158 34.931,76.367 35.028,76.561L35.028,77.062L33.124,77.062C33.221,76.964 33.221,76.756 33.221,76.561C33.124,76.561 33.124,76.464 33.026,76.464C32.026,76.756 31.122,76.964 30.427,75.963C29.829,75.06 30.427,74.254 30.83,73.559C31.025,73.156 31.428,72.864 30.83,72.461C30.219,72.155 29.927,72.461 29.621,72.864C28.926,74.059 28.926,75.755 29.621,77.062L28.62,77.062C28.62,76.964 28.523,76.867 28.523,76.756C28.022,75.255 27.216,74.754 25.715,74.963C23.922,75.157 22.421,75.866 21.42,77.062L20.419,77.062C21.017,76.158 21.823,75.255 23.018,74.754C22.115,73.364 21.712,73.253 20.419,73.656C19.015,74.156 17.611,74.56 16.11,74.462C15.512,74.462 15.012,74.657 14.512,75.157C14.108,75.658 13.817,76.367 13.608,77.062L12.816,77.062ZM27.119,34.625L27.119,33.221C27.119,31.831 27.425,30.622 28.425,29.621C29.023,29.12 29.023,28.717 28.523,28.12C27.717,27.327 26.716,26.716 25.52,26.618C24.422,26.521 23.213,26.618 22.115,27.022C19.516,28.022 17.611,30.719 18.209,33.527C18.32,33.833 18.32,34.124 18.612,34.222C19.112,34.528 20.516,33.833 20.614,33.124C20.614,32.22 20.516,31.428 20.919,30.622C21.42,29.621 23.018,28.62 23.922,28.62C25.117,28.717 25.618,29.621 26.021,30.524C26.215,31.331 26.215,32.026 25.826,32.721C25.618,33.221 25.215,33.527 25.215,34.124C25.826,34.222 26.327,34.625 27.119,34.625ZM21.614,33.624C22.018,33.624 22.421,33.624 22.518,33.124C22.518,32.721 22.518,32.331 22.615,31.928C22.824,30.927 23.213,30.83 24.52,31.72C23.825,31.72 23.324,31.331 23.018,32.026C22.824,32.623 22.921,33.124 23.421,33.527C23.922,33.833 24.422,33.721 24.923,33.332C25.923,32.331 25.826,30.427 24.714,29.524C24.325,29.218 23.922,29.218 23.421,29.218C21.92,29.524 20.516,31.622 20.919,33.124C21.017,33.429 21.211,33.624 21.614,33.624ZM17.611,43.132C19.015,42.534 19.613,41.728 19.321,40.032C19.112,38.628 20.113,37.53 21.323,36.932C22.615,36.432 24.019,36.223 25.215,37.03C27.216,38.433 27.619,40.338 26.215,42.84C27.119,42.534 27.925,42.534 28.12,41.839C28.523,40.63 28.926,39.434 28.926,38.225C28.926,38.03 28.829,37.933 28.717,37.836C26.521,35.028 23.116,34.027 19.821,35.028C17.417,35.723 15.61,38.225 15.707,40.727C15.818,41.533 16.013,42.339 16.513,43.034C16.819,43.437 17.111,43.437 17.611,43.132ZM23.018,42.534C22.824,41.63 22.323,40.838 23.018,40.032C23.421,39.532 23.825,39.337 24.214,39.837C24.714,40.227 24.116,40.435 23.922,40.63C23.324,41.033 23.421,41.533 23.713,42.034C24.116,42.631 24.617,42.437 25.117,42.228C25.715,41.936 26.215,41.533 26.215,40.727C26.327,39.434 25.326,37.836 24.214,37.53C22.713,37.127 20.919,37.836 20.322,39.128C19.516,40.727 20.211,42.131 21.92,42.437C22.212,42.534 22.518,42.84 23.018,42.534ZM22.212,49.943C22.713,49.637 23.213,49.234 23.519,48.733C24.116,47.232 24.019,45.731 23.018,44.438C22.018,43.132 20.614,42.937 19.21,43.229C18.014,43.437 17.514,44.23 17.514,45.536L17.514,46.634C17.514,47.038 17.611,47.232 18.014,47.343C18.417,47.441 18.709,47.343 18.709,46.94C18.821,46.343 19.21,45.939 19.516,45.231C19.821,46.343 18.918,46.94 19.21,47.538C19.613,48.136 20.211,48.539 20.711,49.039C20.919,49.234 21.114,49.54 21.211,49.734C21.517,50.137 21.823,50.137 22.212,49.943ZM17.917,57.949C17.014,57.741 15.915,56.948 15.012,55.85L15.012,50.137L15.109,50.137C16.11,49.637 17.111,49.734 17.917,50.54C18.821,51.347 19.418,52.347 19.21,53.543C19.015,54.641 18.918,55.85 19.015,56.948C19.015,57.741 18.515,58.046 17.917,57.949ZM25.52,55.947C26.424,56.351 27.119,55.85 27.216,54.849C27.216,53.543 26.716,52.445 26.021,51.541C25.215,50.443 24.019,50.137 22.824,50.638C22.421,50.846 21.823,50.943 22.018,51.638C22.212,52.139 22.115,52.945 23.018,52.945C23.324,52.945 23.616,52.848 23.922,53.042C22.212,53.445 22.115,53.543 22.115,55.141C22.212,55.739 22.323,55.85 22.921,55.85C23.713,55.85 24.617,55.544 25.52,55.947ZM28.217,54.043C28.425,54.238 28.62,54.14 28.829,54.043C29.524,53.64 30.121,53.237 30.83,52.945C31.525,52.737 31.831,52.347 31.622,51.638L31.331,50.346C29.621,50.846 29.023,52.139 28.217,53.445C28.12,53.543 28.12,53.849 28.217,54.043ZM34.43,50.54C34.722,50.443 34.931,50.443 35.028,50.443L35.028,50.54L34.43,50.54ZM22.323,63.356C22.824,63.453 23.213,63.453 23.324,62.647C23.616,60.854 24.214,59.144 25.326,57.546C25.826,56.948 25.326,56.642 24.825,56.545C23.825,56.448 22.824,56.74 21.92,57.046C20.516,57.643 19.919,58.741 19.821,60.354C19.613,61.646 21.114,63.05 22.323,63.356ZM21.712,66.748C22.421,66.748 23.018,66.456 23.519,65.955C24.019,65.455 23.713,64.454 23.116,64.357C21.92,64.246 20.919,63.857 20.016,63.148C19.516,62.647 19.112,63.356 18.709,63.551C18.417,63.745 18.209,63.954 18.32,64.357C18.612,65.358 20.516,66.748 21.712,66.748ZM60.743,77.062C60.854,77.062 60.951,76.964 61.146,76.964C62.147,76.867 63.245,76.464 64.357,76.158C64.955,76.061 64.649,75.658 64.454,75.366C64.454,75.255 64.357,75.255 64.357,75.157C64.649,75.06 64.955,74.865 65.149,74.657C65.552,75.255 66.053,75.658 66.65,75.866C67.359,76.061 68.152,76.464 68.36,75.255C69.556,74.56 68.652,73.753 68.555,72.961C68.457,72.753 68.457,72.461 68.36,72.363C68.457,72.155 68.652,72.058 68.861,71.863C69.556,71.251 70.251,70.556 70.959,69.861C71.557,70.153 71.96,69.861 72.155,69.152C72.155,68.958 72.252,68.861 72.252,68.652C72.363,68.555 72.252,68.36 72.655,68.457C71.863,69.959 72.864,70.862 73.753,72.058C73.865,71.46 74.059,71.057 74.059,70.654C74.365,68.958 74.657,67.248 74.365,65.552C74.56,65.247 74.865,64.857 75.06,64.454C75.157,64.746 75.255,65.052 75.255,65.358L74.254,72.864C73.559,73.559 73.156,74.657 73.058,75.963C73.364,75.755 73.656,75.463 74.059,75.157L73.865,76.158C73.656,76.367 73.559,76.561 73.364,76.867L73.156,77.062L71.752,77.062C71.752,76.464 71.863,75.866 72.058,75.255C72.058,74.754 71.96,74.56 71.363,74.56C70.251,74.462 69.152,75.56 68.749,76.867L68.749,77.062L67.651,77.062C67.554,76.964 67.554,76.964 67.359,76.964C66.859,77.062 66.359,76.658 65.858,76.658C65.358,76.658 64.955,76.867 64.552,77.062L60.743,77.062ZM26.215,68.054C26.521,67.457 26.827,68.652 27.216,68.054C27.828,67.054 27.925,66.15 27.522,65.052C26.827,65.747 26.827,66.748 26.021,67.248C25.715,67.457 26.021,67.86 26.215,68.054ZM28.12,74.365C28.717,74.059 28.425,73.156 28.829,72.655C28.829,72.558 28.926,72.461 28.926,72.363C29.329,71.863 29.12,71.557 28.62,71.363C27.425,70.959 26.618,70.153 25.618,69.361L22.824,71.752C22.212,72.252 22.323,72.558 22.921,73.156C23.825,74.059 24.617,74.657 25.923,74.156C26.021,74.059 26.215,74.156 26.424,74.156C27.022,74.059 27.619,74.657 28.12,74.365ZM70.056,73.865C70.556,73.753 70.751,73.559 70.751,73.058C70.751,72.655 70.459,72.363 70.751,71.863C71.363,72.558 70.959,74.059 72.461,73.753C72.753,73.364 72.655,72.961 72.655,72.558C72.461,71.363 71.654,70.654 70.654,70.862C69.653,71.057 69.055,72.155 69.361,73.156C69.458,73.559 69.556,73.865 70.056,73.865ZM86.069,80.064L131.411,80.064C156.027,80.064 175.835,63.648 175.835,40.032C175.835,16.319 156.027,-0 131.411,-0L86.069,-0C85.263,-0 84.665,0.598 84.665,1.404C84.665,2.196 85.263,2.808 86.069,2.808L88.668,2.808C93.172,2.808 96.674,6.408 96.674,10.814L96.674,69.152C96.674,73.559 93.172,77.159 88.668,77.159L86.069,77.159C85.263,77.159 84.665,77.757 84.665,78.563C84.665,79.369 85.263,80.064 86.069,80.064ZM122.695,77.159L122.695,2.808L131.411,2.808C141.613,2.808 149.814,17.917 149.814,40.032C149.814,62.05 141.613,77.159 131.411,77.159L122.695,77.159ZM99.885,77.062C99.677,76.158 99.176,75.755 98.273,75.463C98.078,75.463 97.981,75.366 97.773,75.366C97.981,75.157 98.078,74.963 98.176,74.754C98.273,74.865 98.384,74.865 98.579,74.963C99.176,75.06 99.58,74.963 99.774,74.254C100.177,72.864 101.275,72.252 102.582,71.96C102.888,71.863 102.985,71.752 103.082,71.557C102.888,71.057 102.485,70.556 102.485,70.056C102.485,69.152 101.678,69.653 101.275,69.458C101.776,69.152 102.485,69.055 102.387,68.36C102.387,67.86 101.984,67.957 101.678,67.86C101.984,67.457 102.485,67.457 102.777,66.956C103.986,64.955 106.085,64.357 108.184,65.247C108.489,65.358 108.781,65.552 109.087,65.552C110.283,63.954 108.781,63.453 107.989,62.355C107.489,62.856 107.086,63.245 106.682,63.551C105.779,64.246 104.681,64.746 103.68,64.552C102.777,64.454 101.678,64.357 101.275,63.148C101.081,62.647 100.275,62.453 99.677,62.453L99.677,61.744C99.885,61.744 100.08,61.646 100.275,61.646C101.275,61.452 102.179,61.049 103.18,60.743C103.18,61.146 102.985,61.243 102.888,61.355C102.485,61.646 101.984,61.646 102.082,62.453C102.179,63.05 102.582,63.245 102.985,63.453C104.778,64.148 106.391,63.356 107.391,61.243C107.28,61.243 107.183,61.146 107.086,61.146C104.889,60.854 104.889,60.743 104.987,58.449C105.084,57.351 105.084,57.143 103.986,57.143C103.18,57.143 102.985,56.74 102.777,56.239C102.387,55.044 103.18,53.445 104.681,52.945C105.89,52.542 107.086,52.347 108.392,52.347C109.282,52.347 109.49,51.847 109.184,51.041C108.893,50.346 108.392,50.443 107.781,50.638C105.682,51.235 103.986,50.346 102.485,49.039C102.276,48.845 102.179,48.539 101.984,48.136C101.178,49.54 100.58,50.638 99.677,51.541L99.677,50.638C99.983,50.137 100.08,49.637 100.08,49.136C100.08,48.845 100.08,48.733 100.386,48.636C101.387,48.441 101.081,47.635 101.081,46.94C100.983,46.44 100.775,45.939 100.58,45.439C100.275,44.23 100.177,43.632 99.677,43.632L99.677,42.534C99.983,42.339 100.08,42.228 100.08,42.034C100.177,40.63 100.886,39.337 101.275,38.03C100.678,37.836 100.177,37.836 99.677,38.03L99.677,32.429L99.774,32.429C100.483,32.429 100.983,32.22 101.484,31.831C102.387,31.122 102.387,30.927 101.678,30.121C100.775,29.023 100.58,28.926 99.677,29.426L99.677,28.328C100.177,27.828 99.885,27.327 99.774,26.716C99.774,26.618 99.677,26.618 99.677,26.618L99.677,24.617L99.774,24.714C100.08,26.118 100.678,27.425 101.275,28.717C101.581,29.12 101.887,29.621 102.387,29.927C102.777,30.121 103.082,29.329 103.583,29.829C103.277,31.622 104.987,31.928 106.085,32.623C106.585,32.929 107.28,33.221 107.683,32.429C107.086,31.428 105.779,31.331 105.084,30.121C106.78,30.33 107.683,31.72 109.087,32.123C108.587,30.83 106.988,30.524 106.488,29.12C107.683,29.718 108.489,30.719 109.685,31.219C110.185,30.927 109.184,30.33 109.991,29.927C110.491,30.33 110.491,31.025 110.783,31.428C110.991,31.831 111.186,32.123 111.686,32.026C112.187,31.831 111.992,31.428 111.992,31.025C111.686,28.328 109.893,27.022 107.489,26.215C105.181,25.326 102.777,24.714 100.678,23.213C100.483,23.018 100.177,22.713 99.774,23.018C99.774,23.116 99.774,23.213 99.677,23.324L99.677,15.207C100.08,14.817 100.886,14.817 100.275,14.108L100.775,14.108C101.387,13.914 101.678,13.316 101.984,12.816C101.887,12.607 101.776,12.315 101.581,12.107C101.081,11.606 100.386,11.203 99.677,11.009L99.677,10.203C99.774,10.203 99.885,10.203 99.885,10.314C100.275,10.411 100.58,10.606 101.178,10.411C100.678,9.508 100.678,8.507 100.775,7.603C100.886,7.2 100.775,6.811 100.58,6.408C99.774,5.407 98.982,4.698 97.884,4.1C97.675,3.906 97.481,3.906 97.175,3.809L96.48,2.905L97.578,2.905C98.481,3.197 99.385,3.809 100.177,4.406C100.775,4.907 100.983,5.907 101.776,5.907C102.485,6.005 102.985,5.101 103.777,5.004C104.278,4.907 104.486,4.504 104.18,4.003C103.889,3.697 103.777,3.308 103.68,2.905L104.681,2.905C104.778,3.405 105.084,3.697 105.487,4.1C106.182,4.809 107.086,4.698 107.892,4.198C108.392,3.906 108.99,3.697 109.393,3.308C109.49,3.1 109.588,3.002 109.685,2.905L110.894,2.905C110.991,3.1 111.089,3.308 111.283,3.503C112.284,5.004 115.398,5.907 116.996,5.199C117.9,4.698 118.789,3.906 119.29,2.905L119.693,2.905L119.693,3.906C118.901,5.101 117.789,5.907 116.19,6.199C115.69,6.408 115.398,6.602 115.592,7.2C115.69,7.506 115.69,7.812 115.787,8.006C115.787,8.409 115.69,9.104 116.287,9.007C117.094,9.007 117.997,9.605 118.595,8.91C118.901,8.507 119.29,8.312 119.693,8.006L119.693,9.104C119.095,9.911 119.095,10.814 119.693,11.815L119.693,13.01C119.192,12.315 118.497,11.606 118.4,10.606C118.289,10.105 117.9,10.105 117.594,10.105C117.288,10.105 116.996,10.105 116.788,10.203C115.995,10.314 115.398,11.106 115.495,11.704C115.592,12.413 116.287,12.816 117.191,12.705C117.691,12.607 117.594,12.816 117.497,13.108L117.497,13.413C117.9,13.817 118.4,14.206 118.692,14.706C118.901,15.012 119.29,14.817 119.693,14.609L119.693,15.415L118.595,16.61C117.497,17.709 117.399,18.32 118.4,19.321C118.998,20.016 119.401,20.711 119.693,21.517L119.693,22.421C119.498,22.518 119.192,22.323 119.095,22.115C118.692,21.614 118.497,21.017 118.094,20.419C117.399,19.516 116.593,18.709 116.788,17.417C116.788,17.014 116.399,16.708 116.19,16.416C114.995,15.012 113.396,14.817 111.784,14.609C109.184,14.317 107.086,15.318 105.584,17.514C104.18,19.613 104.389,21.92 105.487,24.116C105.584,24.422 105.779,24.714 106.182,24.714C106.891,25.02 107.586,25.52 108.684,25.52C108.489,24.617 108.392,23.922 108.184,23.324C107.989,22.615 107.892,21.92 108.086,21.323C108.684,19.418 110.088,18.112 111.589,16.916C111.992,16.61 112.284,16.819 112.395,17.319C112.493,17.611 112.395,17.917 112.493,18.32C112.59,19.613 113.09,20.614 114.091,21.517C115.787,22.921 117.789,23.825 119.498,25.326C119.596,25.117 119.693,24.923 119.693,24.714L119.693,27.717C119.596,27.425 119.498,27.119 119.29,26.716C118.998,26.215 118.595,25.923 118.094,25.52L113.994,22.615C112.687,21.712 111.784,20.614 111.686,18.918C111.686,18.709 111.589,18.515 111.395,18.32C108.392,19.919 107.781,23.616 110.088,26.215C110.588,26.827 111.283,27.216 111.784,27.925C112.59,28.829 112.896,30.024 112.993,31.219C112.993,31.525 112.785,32.123 113.396,32.026C113.994,32.026 113.785,31.428 113.785,31.122C113.785,30.719 113.688,30.33 113.591,30.024C113.591,29.621 113.493,29.218 113.994,29.218C114.397,29.218 114.286,29.621 114.397,29.927C114.397,30.524 114.397,31.025 114.494,31.622C114.494,32.026 114.494,32.429 114.995,32.331C115.69,32.331 115.287,31.831 115.189,31.525C115.189,31.428 115.092,31.331 115.092,31.219C114.995,30.927 114.897,30.622 115.189,30.524C115.592,30.524 115.592,30.83 115.69,31.122C115.995,31.622 115.898,32.429 116.69,32.721C116.899,31.122 116.899,31.122 116.19,29.927C115.69,29.218 115.189,28.523 114.786,27.717C114.592,27.327 114.188,26.924 114.397,26.424L114.592,26.424C115.592,27.925 116.593,29.524 117.594,31.219L118.497,30.524C119.192,30.121 119.596,29.524 119.693,28.926L119.693,30.622C119.095,31.025 118.595,31.525 118.094,32.22C117.789,32.721 117.399,33.221 118.192,33.721C118.901,34.222 119.29,34.43 119.693,34.124L119.693,35.931C118.789,35.223 117.789,34.625 116.69,34.124C113.688,32.929 110.686,32.331 107.489,33.624C104.584,34.833 102.679,37.127 101.387,39.935C101.178,40.435 100.775,41.033 101.387,41.533C101.581,41.728 101.484,42.034 101.275,42.228C101.081,42.534 100.983,42.84 100.983,43.132C100.886,45.439 102.387,48.733 105.084,49.845C106.279,50.443 108.392,50.04 109.49,48.942C108.489,48.942 107.683,48.845 106.891,48.344C104.278,46.343 104.278,43.437 105.89,40.935C107.391,38.725 109.49,37.933 112.395,38.128C115.092,38.336 118.497,41.13 119.693,44.132L119.693,51.847C119.596,51.736 119.498,51.541 119.29,51.347C119.095,50.943 118.789,50.638 119.095,50.137C119.79,48.942 119.498,47.538 119.29,46.343C118.595,42.437 115.287,38.628 109.991,39.031C109.393,39.031 108.893,39.226 108.281,39.629C106.988,40.532 106.085,41.839 105.682,43.437C105.279,45.133 105.89,46.537 107.183,47.635C108.184,48.344 109.282,48.539 110.283,47.844C110.283,47.441 110.088,47.343 109.893,47.232C108.99,46.843 108.893,46.037 108.99,45.231C109.184,44.438 109.893,43.841 110.783,43.729C111.589,43.729 112.395,43.841 113.09,44.438C113.994,45.231 114.188,46.231 114.188,47.343C114.091,49.039 113.493,50.638 113.188,52.236C112.785,54.446 113.396,56.448 115.995,57.24C117.191,57.546 117.789,57.546 118.4,56.642C118.789,56.045 119.192,55.642 119.693,55.239L119.693,56.545C119.401,56.948 119.192,57.351 118.901,57.852C118.289,59.242 117.9,60.743 118.595,62.355C118.998,63.356 118.595,63.648 117.594,63.453C117.399,63.356 117.288,63.356 117.191,63.356C116.093,62.953 114.897,63.05 114.091,63.954C113.188,64.857 113.285,66.359 114.091,67.651C115.287,69.556 117.497,70.751 119.693,70.654L119.693,71.654C118.192,71.752 116.788,71.363 115.495,70.459C114.786,69.959 113.994,69.861 113.09,69.959C110.185,70.459 107.391,72.558 106.78,75.56C106.682,76.061 106.682,76.561 106.682,77.062L104.278,77.062C104.486,76.867 104.681,76.964 104.889,76.964C105.181,76.867 105.487,76.964 105.584,76.658C105.682,76.255 105.39,76.158 105.084,76.158C104.681,76.061 104.389,75.963 103.986,75.658C104.584,75.463 105.181,75.866 105.779,75.463C105.487,74.865 104.987,74.963 104.584,74.56L105.181,74.56C105.779,74.657 106.182,74.462 106.279,73.865C106.391,73.156 105.89,73.058 105.39,72.961C104.584,72.753 103.68,72.655 102.888,72.864C100.775,73.253 99.885,75.366 100.983,77.062L99.885,77.062ZM108.684,7.006C109.393,6.408 109.782,5.699 110.588,5.31C110.894,5.101 111.089,4.907 110.783,4.504C110.491,4.198 110.394,3.697 109.782,4.1C108.99,4.601 108.184,5.004 107.391,5.407C107.781,6.102 108.184,6.505 108.684,7.006ZM142.016,4.504C141.808,4.309 141.613,4.1 141.419,4.003C141.71,4.003 142.016,4.1 142.308,4.1C142.211,4.309 142.114,4.406 142.016,4.504ZM104.18,11.606C105.084,11.203 104.278,10.606 104.486,10.105C104.889,10.314 104.889,11.009 105.487,10.814C105.987,10.606 105.39,10.105 105.682,9.813C105.987,9.813 105.987,10.105 106.085,10.203C106.585,10.911 107.086,10.314 107.586,10.203C107.989,10.203 108.184,9.911 108.184,9.508C108.184,8.006 107.586,6.908 106.279,6.102C105.084,5.407 104.083,5.699 102.985,6.408C102.387,6.7 102.485,7.409 102.179,7.909C101.887,8.409 101.387,8.91 101.678,9.605C101.984,10.203 102.179,10.911 102.777,11.412C103.18,11.815 103.583,11.912 104.18,11.606ZM113.785,11.106C114.188,11.203 114.397,10.814 114.592,10.411C114.995,9.313 114.995,8.201 114.494,7.103C113.688,5.602 112.284,5.602 111.089,6.102C109.893,6.602 109.282,7.909 109.393,9.313C109.49,10.008 109.782,10.105 110.394,10.314C111.283,10.606 111.186,9.911 111.492,9.41C111.395,10.203 111.686,10.703 112.395,10.703C113.188,10.703 112.785,9.702 113.396,9.41C113.591,9.702 113.396,9.911 113.396,10.203C113.188,10.606 113.285,11.009 113.785,11.106ZM145.422,74.963C145.616,74.462 145.922,73.962 146.214,73.461C147.02,72.558 146.923,71.654 146.214,70.654C146.214,70.556 146.117,70.362 146.019,70.251C146.214,69.959 146.423,69.653 146.52,69.361C146.923,69.959 147.423,70.654 147.715,71.46C149.119,70.556 150.426,69.861 152.024,69.861C153.428,69.861 154.22,69.152 154.624,67.86C151.218,66.859 150.523,65.358 151.218,60.743C150.926,60.451 150.523,60.451 150.217,60.354C150.217,60.145 150.315,59.951 150.426,59.742C151.218,59.951 152.024,59.951 152.525,59.548C153.22,58.853 154.026,58.352 154.929,58.046C155.124,57.949 155.527,58.046 155.43,57.546C155.43,56.74 155.722,55.85 155.221,54.947C155.221,54.849 155.027,54.947 155.027,54.641C155.319,53.737 155.319,53.543 154.624,53.348C153.72,53.14 152.719,53.042 151.816,53.14C151.927,52.848 151.927,52.542 152.024,52.139C152.219,52.236 152.525,52.347 152.719,52.347C153.72,52.236 154.721,52.347 155.624,52.737C155.819,52.848 156.125,52.945 156.319,52.639C156.82,51.847 156.82,51.541 156.125,50.735L156.528,50.54C157.431,51.041 157.932,50.443 158.432,49.943C158.933,49.442 158.432,48.845 158.224,48.344C158.126,48.038 158.029,47.844 157.821,47.635C156.431,46.037 155.027,44.438 152.719,44.841C152.719,44.438 152.719,44.035 152.817,43.632C152.928,43.729 153.122,43.841 153.317,43.841C154.526,43.841 155.43,44.23 156.528,44.841C157.028,43.632 157.431,42.631 158.126,41.839C158.529,41.436 159.322,41.436 159.127,40.727C159.03,40.227 158.933,39.629 158.529,39.226C158.126,38.725 157.723,38.433 157.126,38.934C156.722,39.226 156.319,39.434 155.722,39.128C156.625,38.336 157.932,37.933 158.321,36.626C158.724,35.431 158.933,34.222 158.126,33.026C157.431,33.221 157.028,33.833 156.431,34.124C155.93,34.43 155.527,35.028 154.624,35.125C155.124,34.222 155.819,33.93 156.431,33.429C157.932,32.22 157.932,29.524 156.625,28.12C156.027,27.425 155.527,27.522 155.221,28.425C155.027,28.926 154.721,29.524 154.721,30.121C154.721,31.525 153.623,32.026 152.525,32.526C153.428,31.622 153.929,30.524 154.22,29.329C154.929,26.827 153.623,24.923 151.427,24.52C151.315,24.214 151.315,23.825 151.218,23.519C151.621,23.616 152.122,23.519 152.024,23.018C151.927,22.323 152.622,21.42 151.621,21.211C151.121,21.114 150.815,20.919 150.523,20.711L150.217,19.71C150.62,20.113 151.121,20.419 151.621,20.516C152.122,20.614 152.525,20.516 152.719,20.113C153.22,19.321 153.929,18.821 154.624,18.209C154.123,16.819 152.928,16.013 152.219,14.817C151.524,13.608 150.718,13.705 149.814,14.706C149.425,15.109 149.216,15.707 149.119,16.207C148.925,15.818 148.813,15.415 148.619,15.012C148.813,14.512 149.119,14.108 149.522,13.705C150.217,13.01 151.121,13.01 152.219,12.705C150.926,11.704 149.814,11.606 148.521,12.01C148.118,12.204 147.813,12.315 147.521,12.51C147.423,12.204 147.215,11.912 147.118,11.704C147.215,11.606 147.423,11.509 147.521,11.509C148.619,11.009 149.717,10.911 150.815,11.106L152.525,11.704C151.427,10.314 149.216,9.41 147.02,9.313C146.617,9.313 146.214,9.313 145.811,9.41L145.116,8.201C145.422,8.006 145.811,7.909 146.214,8.104C146.923,8.507 147.618,8.312 148.313,8.409C149.119,8.604 149.522,8.507 149.814,7.603C150.023,7.103 150.023,6.811 149.814,6.505C150.12,6.7 150.523,6.811 150.815,6.908C150.815,7.506 150.523,8.104 150.12,8.701C151.315,9.41 152.525,9.702 153.428,10.703C154.318,11.509 154.929,12.51 155.221,13.705C155.43,14.317 155.221,14.706 154.721,15.109C154.22,15.512 154.026,14.915 153.623,14.817L153.428,15.109C154.123,15.818 154.818,16.61 155.527,17.417C155.722,17.709 155.93,17.917 156.431,17.82C157.821,17.514 159.322,17.611 160.823,17.611C162.032,17.611 163.033,17.111 163.728,16.11L164.326,16.819C164.228,16.916 164.131,17.111 163.937,17.319C163.228,18.209 162.324,18.612 161.129,18.515L159.224,18.515C158.029,18.515 156.82,18.612 155.624,18.918C154.026,19.516 153.122,20.711 152.928,22.323C152.719,23.922 152.719,23.922 154.526,24.923C154.721,22.518 156.027,21.42 158.126,21.114C159.127,20.919 160.031,20.711 161.031,20.919C163.13,21.211 164.937,20.822 166.035,19.015C166.439,19.418 166.73,19.919 167.036,20.322C167.036,20.419 167.036,20.516 166.828,20.516C165.229,21.114 165.229,21.114 165.327,22.421C165.327,22.518 165.132,22.518 165.035,22.615C164.632,21.823 164.632,21.823 163.825,21.92C162.936,22.018 161.935,22.115 161.031,22.018C159.53,21.92 159.53,21.823 159.433,23.324C159.322,23.018 159.224,22.824 159.224,22.615C159.03,22.212 158.933,21.823 158.224,22.018C157.626,22.212 157.529,22.615 157.723,23.116C157.821,23.616 157.932,24.019 157.821,24.714C157.723,24.116 157.723,23.825 157.529,23.519C157.32,23.213 157.431,22.518 156.82,22.615C156.431,22.615 156.125,23.018 155.93,23.519C155.819,23.825 155.722,24.214 155.819,24.617C156.027,25.923 156.431,27.119 157.626,27.828C158.432,28.217 158.432,28.829 158.627,29.426C158.933,30.524 158.529,31.72 159.127,32.832C159.822,34.333 159.822,35.834 159.03,37.335C158.821,37.627 158.627,37.933 158.933,38.225C159.433,38.628 159.628,39.532 160.323,40.032C160.628,39.629 160.531,39.226 160.531,38.837L160.531,32.331C160.531,31.831 160.628,31.219 160.726,30.719C160.934,31.025 161.226,31.122 161.629,30.927C162.727,30.219 164.034,30.121 165.327,29.829C167.829,29.329 168.037,29.218 168.134,27.022C168.134,26.924 168.232,26.924 168.232,26.827C168.537,27.327 168.232,28.022 168.635,28.523C169.135,28.62 169.636,28.523 170.039,28.217C170.442,28.022 170.442,27.619 170.539,27.022L171.137,28.829C169.941,29.12 168.829,29.426 167.634,29.927C166.035,30.524 164.228,30.83 162.533,31.331C161.726,31.622 161.532,32.123 161.435,32.929C161.129,34.833 161.629,36.835 161.323,38.725C161.226,39.337 161.129,40.129 161.323,40.63C161.629,41.436 162.63,41.13 163.228,41.436C163.533,41.63 163.825,41.936 164.437,41.839C164.437,39.532 164.534,37.335 164.437,35.125C164.326,33.527 164.228,33.527 162.936,32.832C163.13,32.623 163.436,32.526 163.631,32.721C164.826,33.429 165.73,32.832 166.828,32.22C167.94,31.622 169.135,31.122 170.442,30.83L171.637,30.524C171.734,30.719 171.734,31.025 171.832,31.219C169.941,31.72 168.134,32.22 166.327,33.124C165.327,33.721 165.132,34.333 165.132,35.334C165.229,37.836 165.632,40.435 165.229,42.937C165.132,43.437 165.827,44.73 166.133,44.73C166.939,44.536 167.634,44.132 168.44,43.841C169.038,43.535 168.732,42.84 168.829,42.228C169.135,42.729 169.038,43.034 169.33,43.132C169.733,43.229 169.733,42.937 169.941,42.729C170.636,41.839 170.136,40.838 170.136,39.629C170.442,40.032 170.442,40.532 170.831,40.227C171.54,39.726 171.637,38.725 172.332,38.225C172.235,37.627 172.443,37.433 172.735,37.224C172.833,37.725 172.833,38.336 172.833,38.837C171.943,39.935 171.234,41.13 170.831,42.534C170.442,43.729 169.941,44.438 168.635,44.73C167.537,44.939 166.439,45.342 165.827,46.44C165.73,46.537 165.535,46.732 165.438,46.732C164.228,47.038 163.937,47.941 163.436,48.845C162.727,50.04 163.13,51.235 163.13,52.445C162.936,54.043 163.728,55.239 164.937,56.142C165.938,56.851 166.939,57.546 168.037,58.046L167.537,58.853C166.73,58.449 166.035,58.046 165.229,57.546C163.728,56.448 162.435,55.35 162.13,53.348C162.13,53.14 162.032,52.945 161.824,52.848C161.532,52.848 161.323,53.042 161.226,53.348C160.726,54.14 160.434,55.141 160.531,56.142C160.726,57.449 161.129,57.949 162.533,57.949C163.436,57.949 164.326,58.144 165.229,58.547C165.827,58.853 166.23,59.353 166.133,60.048C165.938,60.854 165.535,61.355 164.729,61.452L164.228,61.452C162.825,61.744 162.13,62.745 162.63,64.051L162.936,64.649C162.825,64.857 162.63,65.052 162.435,65.149C162.13,64.857 161.935,64.454 161.824,63.954C161.323,62.55 162.032,61.243 163.436,60.854C163.631,60.743 163.937,60.743 164.228,60.743C164.632,60.548 165.132,60.548 165.132,59.951C165.132,59.45 164.826,59.242 164.326,59.047C163.436,58.547 162.533,58.853 161.532,59.047C160.628,59.353 159.822,59.742 159.628,60.743C159.628,61.146 159.433,61.355 159.127,61.452C158.724,61.549 158.627,61.855 158.529,62.147C158.029,64.051 157.821,65.955 158.933,67.749L159.224,68.054C158.724,68.36 158.321,68.652 157.932,68.958C157.932,68.457 157.821,67.86 157.529,67.248C156.125,67.457 155.527,68.555 154.929,69.556C154.429,70.459 153.817,70.959 152.622,70.959C149.814,70.862 147.715,72.155 146.617,74.657L145.422,74.963ZM109.685,13.608C110.088,13.705 110.283,13.413 110.185,13.205C109.991,12.705 109.685,12.204 109.393,11.815C109.087,11.412 108.684,11.315 108.184,11.315C108.184,11.412 108.086,11.509 108.086,11.509C108.184,12.315 108.893,12.816 108.99,13.511C109.282,13.511 109.49,13.608 109.685,13.608ZM108.184,13.817C108.684,14.317 108.893,14.011 108.99,13.511C108.392,13.108 108.086,12.51 107.781,11.912C107.586,11.509 107.28,11.315 106.891,11.509C106.391,11.912 106.682,12.204 106.891,12.51C107.086,12.816 107.391,13.108 107.683,13.316C107.781,13.511 107.989,13.705 108.184,13.817ZM105.584,15.109C106.085,15.415 106.391,15.207 106.391,14.609C107.892,14.706 107.892,14.609 107.586,13.316C106.988,13.316 106.682,12.816 106.279,12.413C105.779,11.815 105.487,11.912 105.084,12.816L104.681,12.705C104.083,12.51 103.68,12.816 103.583,13.316C103.485,13.705 103.777,13.914 104.18,14.108C104.778,14.317 105.084,14.817 105.584,15.109ZM103.485,19.919C103.583,19.321 103.277,19.21 103.082,19.015C103.889,19.015 104.083,18.612 103.777,17.917C104.18,17.82 104.486,17.611 104.18,17.208C103.777,16.708 103.277,16.513 102.985,15.915C103.583,16.013 103.777,16.513 104.18,16.819C104.389,17.014 104.584,17.111 104.889,16.819C104.987,16.61 104.987,16.416 104.889,16.207C104.18,15.512 103.583,14.915 102.985,14.206C102.888,14.108 102.679,14.011 102.582,14.011C101.887,14.206 101.484,14.817 101.178,15.415C100.886,15.915 101.387,16.11 101.581,16.416C100.483,16.319 100.483,16.319 100.386,17.319C100.08,17.514 99.983,18.014 100.177,18.112C101.275,18.821 102.082,19.821 103.485,19.919ZM103.082,23.213C103.889,23.324 104.18,23.018 103.889,22.212C103.68,21.211 101.984,19.919 100.886,20.016C100.58,20.016 100.177,19.919 100.08,20.322C100.275,20.822 100.886,20.711 101.275,21.114C100.983,21.211 100.678,21.211 100.483,21.323C100.275,21.517 100.386,21.823 100.58,21.92C101.387,22.421 102.082,23.018 103.082,23.213ZM152.122,29.023C152.122,28.717 152.024,28.328 152.024,27.925C152.122,28.328 152.219,28.717 152.122,29.023ZM103.485,35.223C103.986,35.125 104.083,34.722 103.889,34.333C103.583,33.721 103.082,33.124 103.277,32.331C103.388,32.623 103.583,32.929 103.68,33.221C104.389,34.625 104.486,34.625 105.89,33.124C104.987,33.624 104.486,33.527 104.278,32.832C104.18,32.526 103.986,32.331 103.777,32.026C103.583,31.831 103.277,31.72 102.985,31.831C102.777,31.831 102.679,32.026 102.679,32.331C102.679,33.124 102.582,33.93 102.679,34.722C102.679,35.223 103.082,35.223 103.485,35.223ZM160.726,48.942C161.323,48.636 160.726,48.136 160.823,47.733C161.323,48.038 161.226,48.733 161.935,48.942C162.227,48.539 161.726,48.038 162.032,47.538C162.227,47.733 162.63,48.136 162.727,47.941C162.936,46.94 163.825,46.732 164.326,46.037C164.534,45.731 164.937,45.536 164.826,45.133C164.534,43.729 163.728,42.84 162.533,42.339C161.323,41.936 160.225,41.728 159.224,42.84C159.127,43.034 158.821,43.229 158.627,43.34C157.723,43.841 157.431,44.438 157.723,45.342C157.821,45.842 158.029,46.343 158.432,46.732C158.821,47.232 159.224,47.733 159.53,48.344C159.822,48.845 160.128,49.234 160.726,48.942ZM110.491,63.245C111.589,63.245 112.785,63.453 113.785,62.953C114.897,62.453 116.093,62.05 117.497,62.55C116.996,60.951 117.288,59.548 117.594,58.241C116.593,58.241 115.69,57.449 114.689,58.144C114.592,58.241 114.689,57.949 114.689,57.852C114.897,57.546 114.689,57.24 114.397,57.24C113.591,57.24 113.493,55.85 112.493,56.142C112.187,56.142 112.395,55.85 112.493,55.739C112.785,55.239 112.59,55.141 112.09,55.141L110.991,55.141C111.686,54.738 112.187,54.641 112.187,54.043C112.284,52.236 112.687,50.54 113.09,48.942C113.285,48.038 113.396,47.135 113.188,46.343C113.09,45.231 112.09,44.341 111.089,44.438C110.491,44.536 109.991,44.841 109.893,45.536C109.782,46.134 110.088,46.537 110.588,46.843C111.089,47.038 111.686,47.038 112.09,47.538C111.686,48.441 110.991,49.039 110.283,49.637C109.49,50.443 109.893,51.944 110.991,52.236C111.283,52.347 111.589,52.236 111.686,52.737C111.395,52.945 110.991,52.848 110.686,52.945C109.184,52.945 107.586,52.945 106.085,53.14C105.584,53.237 104.987,53.348 104.584,53.737C103.986,54.238 103.485,54.849 103.583,55.642C103.583,56.545 104.486,56.448 105.084,56.545C105.779,56.74 105.987,57.143 105.779,57.741C105.682,58.241 105.584,58.853 105.682,59.353C105.682,59.951 105.987,60.451 106.488,60.243C107.989,59.853 108.392,60.646 108.781,61.744C109.087,62.55 109.588,63.245 110.491,63.245ZM158.432,60.048C159.03,60.145 159.224,59.353 159.628,59.047C159.725,59.047 159.725,59.047 159.822,58.95C160.323,58.644 160.434,58.449 160.128,57.852C159.224,56.351 159.53,54.738 160.128,53.237C160.434,52.737 160.726,52.236 161.435,52.042C162.13,51.736 162.435,50.943 162.13,50.235C161.726,49.54 161.129,49.637 160.531,49.943C157.932,50.943 156.528,53.042 156.528,56.239C156.528,56.851 156.528,57.741 157.028,58.547C157.32,59.144 157.723,59.951 158.432,60.048ZM153.525,66.456C154.526,67.054 155.43,67.054 156.528,66.456C157.431,65.955 157.32,65.149 157.223,64.357C157.126,63.954 157.223,63.648 157.32,63.245C157.626,61.952 157.626,60.646 156.431,59.548C155.624,58.741 155.319,58.449 154.22,59.047C152.719,59.951 151.927,61.452 151.718,62.856C151.718,64.649 152.316,65.747 153.525,66.456ZM112.187,68.958C112.493,69.055 112.785,69.055 112.993,68.861C113.188,68.652 113.09,68.249 112.896,68.152C111.992,67.651 112.687,66.859 112.493,66.053C112.493,65.747 112.493,65.358 112.59,65.052C112.687,64.246 112.284,64.148 111.784,64.246C111.089,64.357 110.588,64.649 110.394,65.358C110.185,66.359 111.283,68.555 112.187,68.958ZM147.813,68.555C147.618,68.555 147.312,68.457 147.118,68.36L147.715,67.151C147.715,66.956 147.813,66.748 147.924,66.65C148.313,66.553 148.521,66.359 148.521,65.858C148.521,65.455 148.716,65.149 149.216,65.052C149.814,65.052 149.925,65.455 150.023,65.858C150.12,66.053 150.217,66.359 150.217,66.553C150.523,68.054 150.12,68.555 148.521,68.555L147.813,68.555ZM106.891,72.155C107.28,72.252 107.781,72.058 107.391,71.46C107.183,71.154 106.988,71.057 107.489,71.057C108.281,71.057 108.281,71.057 107.892,70.153C108.99,71.057 109.588,69.653 110.491,69.75C110.686,69.75 110.686,69.25 110.588,69.055C109.685,67.554 108.684,66.247 106.988,65.858C105.584,65.552 103.986,66.359 103.583,67.651C102.888,69.556 103.485,70.959 105.181,71.654C105.682,71.863 106.279,72.155 106.891,72.155ZM119.693,68.457C117.997,68.958 116.287,68.152 115.592,66.247C116.399,66.956 116.996,67.554 117.789,67.86C118.4,68.152 118.998,68.054 119.693,68.152L119.693,68.457ZM101.776,71.654C100.983,71.46 100.275,71.363 99.482,71.363C99.58,71.057 99.58,70.751 99.677,70.362L100.983,70.654C101.387,70.751 101.776,70.959 101.776,71.654ZM109.588,77.062C110.185,74.56 112.687,72.864 115.287,73.058C117.094,73.253 118.595,73.962 119.693,74.963L119.693,76.464C118.595,75.06 117.094,74.254 115.398,74.156C112.785,74.156 111.283,75.366 110.686,77.062L109.588,77.062ZM141.71,75.963C141.71,75.866 141.613,75.866 141.613,75.866L142.419,75.06L142.809,75.157L143.114,74.365C143.212,74.059 143.42,73.865 143.615,73.656C143.615,74.254 143.615,74.865 143.809,75.463C143.114,75.658 142.419,75.755 141.71,75.963ZM117.997,77.062C117.288,76.158 116.399,75.755 115.092,75.866C114.786,75.963 114.397,76.061 114.397,75.56C114.397,75.255 114.689,75.157 114.995,75.157C116.496,75.06 118.094,75.755 118.692,77.062L117.997,77.062Z" style="fill:rgb(83,56,161);fill-rule:nonzero;"/>
                </g>
            </g>
        </g>
    </g>
</svg>
