<?xml version="1.0" encoding="UTF-8" standalone="no"?>
<!DOCTYPE svg PUBLIC "-//W3C//DTD SVG 1.1//EN" "http://www.w3.org/Graphics/SVG/1.1/DTD/svg11.dtd">
<svg width="100%" height="100%" viewBox="0 0 392 392" version="1.1" xmlns="http://www.w3.org/2000/svg" xmlns:xlink="http://www.w3.org/1999/xlink" xml:space="preserve" xmlns:serif="http://www.serif.com/" style="fill-rule:evenodd;clip-rule:evenodd;stroke-linejoin:round;stroke-miterlimit:2;">
    <g transform="matrix(1,0,0,1,-30.1117,-14.8787)">
        <g transform="matrix(4.16667,0,0,4.16667,0,0)">
            <g transform="matrix(0,1,1,0,54.1962,3.8404)">
                <path d="M46.766,-46.766C20.901,-46.766 -0.066,-25.754 -0.066,0.167C-0.066,26.088 20.901,46.766 46.766,46.766C72.631,46.766 93.598,26.088 93.598,0.167C93.598,-25.754 72.631,-46.766 46.766,-46.766" style="fill:white;fill-rule:nonzero;"/>
            </g>
        </g>
        <g transform="matrix(4.16667,0,0,4.16667,0,0)">
            <g transform="matrix(1,0,0,1,7.6338,50.6029)">
                <path d="M0,0.003C0,12.879 5.23,24.536 13.687,32.974C22.144,41.412 33.825,46.63 46.73,46.63C72.537,46.63 93.123,25.758 93.125,0.003C93.123,-25.752 72.537,-46.624 46.73,-46.627C33.825,-46.627 22.144,-41.407 13.687,-32.969C5.23,-24.531 0,-12.873 0,0.003M-0.407,0.003C-0.407,-25.976 20.695,-47.032 46.73,-47.032C59.744,-47.034 71.449,-41.767 79.894,-33.257C88.34,-24.745 93.53,-12.985 93.53,0.003C93.53,12.99 88.34,24.75 79.894,33.262C71.449,41.774 59.744,47.037 46.73,47.037C20.695,47.037 -0.407,25.982 -0.407,0.003" style="fill:rgb(215,25,32);fill-rule:nonzero;"/>
            </g>
        </g>
        <g transform="matrix(4.16667,0,0,4.16667,0,0)">
            <g transform="matrix(1,0,0,1,13.2056,50.6075)">
                <path d="M0,-0.002C0,11.321 4.586,21.559 12.006,28.983C19.427,36.402 29.666,40.987 40.991,40.989C52.312,40.987 62.552,36.402 69.974,28.983C77.393,21.559 81.98,11.321 81.98,-0.002C81.98,-11.325 77.393,-21.564 69.974,-28.985C62.552,-36.406 52.312,-40.991 40.991,-40.991C29.666,-40.991 19.427,-36.406 12.006,-28.985C4.586,-21.564 0,-11.325 0,-0.002M-2.866,-0.002C-2.864,-24.224 16.77,-43.856 40.991,-43.856C65.21,-43.856 84.843,-24.224 84.845,-0.002C84.843,24.219 65.21,43.852 40.991,43.854C16.77,43.852 -2.864,24.219 -2.866,-0.002" style="fill:rgb(215,25,32);fill-rule:nonzero;"/>
            </g>
        </g>
        <g transform="matrix(4.16667,0,0,4.16667,0,0)">
            <g transform="matrix(1,0,0,1,86.6953,92.5794)">
                <path d="M0,-0.324C0.336,-0.324 0.636,-0.348 0.636,-0.75C0.636,-1.074 0.342,-1.134 0.066,-1.134L-0.474,-1.134L-0.474,-0.324L0,-0.324ZM-0.474,1.145L-0.869,1.145L-0.869,-1.47L0.126,-1.47C0.744,-1.47 1.05,-1.242 1.05,-0.726C1.05,-0.259 0.756,-0.054 0.372,-0.007L1.116,1.145L0.672,1.145L-0.018,0.012L-0.474,0.012L-0.474,1.145ZM0.007,1.727C1.032,1.727 1.842,0.923 1.842,-0.169C1.842,-1.242 1.032,-2.052 0.007,-2.052C-1.031,-2.052 -1.841,-1.242 -1.841,-0.169C-1.841,0.923 -1.031,1.727 0.007,1.727M-2.297,-0.169C-2.297,-1.47 -1.241,-2.429 0.007,-2.429C1.241,-2.429 2.297,-1.47 2.297,-0.169C2.297,1.145 1.241,2.105 0.007,2.105C-1.241,2.105 -2.297,1.145 -2.297,-0.169" style="fill:rgb(215,25,32);fill-rule:nonzero;"/>
            </g>
        </g>
        <g transform="matrix(4.16667,0,0,4.16667,0,0)">
            <g transform="matrix(1,0,0,1,0,-0.251)">
                <path d="M87.977,45.841L91.652,45.841L91.652,44.491L87.977,44.491L87.977,45.841ZM74.935,59.853C76.442,59.857 77.095,60.93 77.099,62.331C77.099,62.409 77.095,62.488 77.092,62.573L72.52,62.532C72.636,61.2 73.521,59.85 74.935,59.853M78.869,66.804C78.093,67.623 77.328,68.307 76.222,68.307C76.166,68.307 76.11,68.305 76.056,68.302C72.915,68.112 72.482,65.743 72.477,63.042L77.998,63.083C78.595,63.081 78.839,63.006 78.839,62.217C78.836,60.458 77.328,59.232 75.235,59.227C72.754,59.234 70.759,61.086 70.755,64.38C70.759,67.735 72.733,69.589 75.235,69.594C76.26,69.592 76.974,69.455 77.136,69.362L79.543,66.86L78.869,66.804ZM42.872,59.919C44.378,59.923 45.03,60.998 45.034,62.399C45.034,62.477 45.032,62.557 45.03,62.639L40.457,62.6C40.573,61.268 41.457,59.919 42.872,59.919M44.157,68.374C44.102,68.374 44.046,68.372 43.993,68.37C40.853,68.181 40.418,65.81 40.413,63.109L45.934,63.15C46.532,63.147 46.774,63.074 46.774,62.285C46.772,60.526 45.266,59.298 43.171,59.294C40.689,59.3 38.697,61.153 38.691,64.447C38.697,67.802 40.668,69.657 43.171,69.661C44.198,69.659 44.911,69.521 45.071,69.429L47.479,66.926L46.805,66.872C46.028,67.689 45.264,68.374 44.157,68.374M83.997,69.257L83.938,69.257L83.997,69.257ZM78.777,69.214L78.777,69.209L78.777,69.214ZM82.62,61.361L82.341,61.81L82.341,59.39L81.854,59.208L81.841,59.247L81.824,59.208C81.013,59.576 79.822,59.904 78.871,60.025L78.834,60.531C79.449,60.572 80.06,60.674 80.589,60.937L80.566,68.369L78.769,68.675L78.736,69.257L84.038,69.298L84.079,68.716L82.257,68.328L82.29,63.288C82.292,62.944 83.234,60.615 84.337,60.613C84.577,60.611 84.926,60.792 85.139,60.952L85.68,61.004L86.071,59.626C85.717,59.322 84.891,59.273 84.469,59.271C83.372,59.277 83.057,60.531 82.62,61.361M58.222,40.644C57.882,40.352 57.097,40.305 56.694,40.303C55.649,40.309 55.349,41.505 54.934,42.292L54.67,42.713L54.672,40.419L54.208,40.242L54.195,40.282L54.177,40.244C53.406,40.593 52.271,40.906 51.368,41.022L51.333,41.505C51.918,41.546 52.499,41.644 53.001,41.894L52.979,48.961L51.272,49.252L51.237,49.806L51.279,49.806L51.279,49.807L51.409,49.807L56.285,49.849L56.326,49.292L54.59,48.92L54.625,44.128C54.625,43.801 55.522,41.587 56.569,41.585C56.796,41.583 57.128,41.754 57.33,41.906L57.848,41.957L58.222,40.644ZM49.098,49.807L49.098,49.808L49.042,49.807L49.098,49.807ZM45.833,48.961L44.126,49.251L44.091,49.808L49.139,49.849L49.18,49.292L47.444,48.92L47.477,44.128C47.479,43.801 48.379,41.586 49.423,41.584C49.65,41.583 49.981,41.754 50.184,41.907L50.701,41.957L51.076,40.644C50.736,40.354 49.951,40.305 49.546,40.302C48.503,40.309 48.203,41.504 47.788,42.292L47.526,42.713L47.526,40.419L47.062,40.243L47.05,40.282L47.031,40.243C46.26,40.593 45.125,40.906 44.222,41.022L44.187,41.504C44.772,41.545 45.353,41.644 45.857,41.893L45.833,48.961ZM40.243,40.838C41.668,40.84 42.284,41.855 42.288,43.181C42.288,43.255 42.286,43.333 42.284,43.41L37.959,43.372C38.068,42.11 38.905,40.836 40.243,40.838M40.525,50.062C41.499,50.062 42.173,49.931 42.327,49.843L44.61,47.469L43.968,47.416C43.23,48.19 42.506,48.839 41.458,48.839C41.407,48.839 41.355,48.839 41.304,48.834C38.332,48.655 37.922,46.414 37.917,43.855L37.979,43.855L43.143,43.895C43.709,43.895 43.942,43.821 43.942,43.073C43.938,41.406 42.511,40.243 40.525,40.241C38.174,40.245 36.287,42.001 36.281,45.124C36.287,48.301 38.156,50.057 40.525,50.062M23.504,49.808L23.454,49.807L23.504,49.807L23.504,49.808ZM37.211,49.807L37.211,49.808L37.149,49.807L37.211,49.807ZM31.781,49.765L31.781,49.759L31.781,49.765ZM23.586,49.287L21.792,48.914L22.791,38.119L22.884,37.853L27.695,49.458L27.961,49.483L32.639,37.976L32.768,38.213L33.69,48.957L31.774,49.246L31.74,49.808L37.252,49.849L37.293,49.287L35.618,48.914L34.42,36.99L36.297,36.704L36.291,36.663L36.332,36.659L36.31,36.181L32.216,36.142L28.127,46.086L23.98,36.166L19.815,36.142L19.752,36.659L21.792,37.035L20.646,48.951L19.067,49.246L19.035,49.808L23.545,49.849L23.586,49.287ZM58.384,41.464L58.383,41.464L58.384,41.459L58.384,41.464ZM58.18,49.765L58.179,49.765L58.18,49.751L58.18,49.765ZM59.955,49.033L58.173,49.323L58.138,49.808L63.247,49.849L63.247,49.808L63.288,49.808L63.288,49.364L61.51,48.992L61.542,40.419L61.162,40.243C60.375,40.593 59.263,40.906 58.377,41.022L58.342,41.504C58.917,41.545 59.485,41.644 59.978,41.893L59.955,49.033ZM68.508,45.263L68.508,45.906L68.466,48.047C67.876,48.414 66.96,48.89 66.412,48.888C65.687,48.886 64.932,48.375 64.93,47.704C64.924,46.384 66.338,46.008 68.508,45.263M68.508,45.221L68.508,45.233C68.33,45.289 68.164,45.342 67.997,45.395C68.165,45.338 68.33,45.282 68.508,45.221M68.436,49.871C68.435,49.871 68.424,49.873 68.424,49.873L68.447,49.584L68.436,49.871ZM65.337,49.896L65.382,49.896C66.571,49.866 67.533,49.418 68.442,48.705L68.392,49.91C68.394,49.912 68.399,49.913 68.408,49.913C68.413,49.913 68.428,49.91 68.434,49.909L68.434,49.913C68.434,49.913 68.461,49.907 68.471,49.905C68.838,49.863 70.749,49.431 71.611,49.27L71.671,49.26L71.375,48.8L69.98,48.655L69.982,42.682C69.98,40.955 69.233,40.171 68.025,40.169C67.969,40.169 67.911,40.167 67.852,40.167C67.68,40.167 67.498,40.178 67.337,40.272L65.148,41.58C64.926,41.724 64.143,42.151 64.108,42.531L64.034,43.617L64.184,43.733L65.326,43.504C65.468,43.472 65.674,43.48 65.674,43.243L65.674,43.21C65.664,43.022 65.653,42.84 65.653,42.668C65.66,41.907 65.838,41.339 67.214,41.143C67.265,41.135 67.314,41.13 67.363,41.13C68.054,41.135 68.463,41.862 68.465,43.269L68.465,44.711C67.526,45.003 66.497,45.407 65.398,45.774C64.566,46.043 63.276,46.44 63.276,48.09C63.28,48.869 64.169,49.894 65.337,49.896M60.605,37.831C61.063,37.831 61.499,37.462 61.501,36.961C61.499,36.448 61.119,35.988 60.605,35.986C60.106,35.99 59.745,36.485 59.745,36.961C59.747,37.428 60.162,37.831 60.605,37.831M87.95,49.736L87.899,49.736L87.95,49.736ZM82.305,49.736L82.253,49.736L82.305,49.736ZM76.586,49.736L76.534,49.736L76.586,49.736ZM71.999,49.693L71.998,49.693L71.999,49.683L71.999,49.693ZM71.955,41.357L71.953,41.357L71.955,41.346L71.955,41.357ZM86.562,43.347C86.568,41.398 85.583,40.296 83.514,40.241C83.505,40.239 83.495,40.239 83.484,40.239C83.233,40.239 82.833,40.339 82.271,40.777L80.823,42.015C80.304,41.031 79.316,40.262 78.152,40.259C77.388,40.257 77.109,40.364 76.511,40.834L75.126,41.73L75.126,40.419L74.681,40.243C73.91,40.593 72.824,40.906 71.957,41.022L71.912,41.396C72.475,41.439 73.03,41.537 73.514,41.787L73.501,48.937L71.99,49.229L71.957,49.736L76.627,49.777L76.668,49.317L75.094,48.896L75.126,42.488C75.812,41.963 76.595,41.335 77.421,41.337C79.173,41.339 79.216,43.11 79.218,44.674L79.218,48.937L77.707,49.276L77.676,49.736L82.346,49.777L82.387,49.317L80.813,48.896L80.845,42.468C81.514,41.975 82.413,41.459 83.25,41.459C84.826,41.464 84.935,42.793 84.938,44.199C84.938,44.437 84.937,44.674 84.937,44.909L84.937,48.937L83.426,49.276L83.393,49.736L87.993,49.777L88.034,49.317L86.531,48.896L86.562,43.347ZM70.581,67.346L70.525,67.4C70.074,67.852 69.378,68.551 68.818,68.547C67.75,68.523 67.334,67.789 67.328,66.449C67.328,66.389 67.328,66.33 67.332,66.272L67.332,60.928L67.401,60.928L70.244,60.968L70.285,59.974L67.291,59.933L67.332,57.387L66.819,57.346C66.41,58.775 65.278,59.622 64.176,60.42L64.157,60.927L64.2,60.927L64.2,60.968L65.617,60.968L65.576,67.09C65.578,69.006 66.812,69.693 67.918,69.697C67.961,69.697 68.002,69.695 68.046,69.695C69.611,69.617 70.689,68.059 70.691,68.057L70.595,67.422L70.581,67.346ZM38.529,56.019L38.413,55.988L38.53,56.017L38.529,56.019ZM36.702,55.066L36.702,55.065L36.758,55.066L36.702,55.066ZM23.737,56.099L23.739,56.099L23.866,56.501L23.737,56.099ZM25.429,55.154L25.431,55.154L25.427,55.178L25.429,55.154ZM41.487,55.588L41.518,55.065L36.661,55.025L36.62,55.549L38.516,56.056L38.233,56.865L35.053,65.85C34.707,64.812 32.1,56.961 31.922,56.295L32.166,55.914L33.75,55.678L33.785,55.106L28.532,55.072L28.534,55.113L28.491,55.113L28.491,55.643L29.93,55.973L30.192,56.451C30.011,57.125 27.288,64.856 26.922,65.895L23.776,56.088L23.869,56.063L25.4,55.684L25.472,55.115L25.432,55.114L25.432,55.113L25.239,55.112L20.006,55.059L19.955,55.594L21.824,56.057L26.136,69.674L26.796,69.704L30.723,58.87L34.365,69.635L35.066,69.668L39.827,56.031L41.487,55.588ZM53.014,59.32C52.69,59.32 52.391,59.381 52.077,59.422L50.409,60.485L50.651,60.687C51.102,60.55 51.553,60.47 51.983,60.47C54.307,60.474 55.338,62.63 55.34,64.817C55.338,67.086 54.346,69.006 52.301,69.01C50.956,69.008 50.155,68.082 50.153,66.744L50.153,53.434L49.741,53.25C48.902,53.621 47.884,53.947 46.939,54.07L46.917,54.451C47.527,54.49 47.964,54.59 48.495,54.854L48.458,65.473C48.458,65.953 48.462,66.426 48.462,66.902C48.462,67.748 48.45,68.598 48.388,69.49L48.767,69.695L49.535,68.952C50.17,69.334 50.973,69.635 51.706,69.637C55.332,69.631 56.904,67.029 56.908,64.205C56.904,61.015 55.471,59.325 53.014,59.32M57.596,66.137L57.595,66.133L57.654,66.137L57.596,66.137ZM59.126,61.626C59.126,60.517 59.927,59.833 60.857,59.831C62.137,59.833 62.754,60.817 62.758,62.118L63.452,62.159L63.53,60.159L63.489,60.159L63.516,60.127C62.723,59.42 61.833,59.224 60.821,59.224C59.253,59.228 57.792,60.308 57.79,62.136C57.813,65.938 62.741,64.311 62.698,66.893C62.694,68.088 61.952,68.932 60.786,68.935L60.734,68.935C59.271,68.906 58.361,67.701 58.322,66.135L57.554,66.096L57.557,66.137L57.554,66.137L57.572,66.332L57.773,68.971C58.663,69.48 59.641,69.613 60.596,69.613C62.42,69.609 64.233,68.605 64.235,66.404C64.215,62.75 59.081,63.815 59.126,61.626" style="fill:rgb(0,73,144);fill-rule:nonzero;"/>
            </g>
        </g>
    </g>
</svg>
